<?xml version="1.0" standalone="no"?>
<!DOCTYPE svg PUBLIC "-//W3C//DTD SVG 20010904//EN"
 "http://www.w3.org/TR/2001/REC-SVG-20010904/DTD/svg10.dtd">
<svg version="1.0" xmlns="http://www.w3.org/2000/svg"
 width="583.000000pt" height="583.000000pt" viewBox="0 0 583.000000 583.000000"
 preserveAspectRatio="xMidYMid meet">
<metadata>
Created by potrace 1.14, written by Peter Selinger 2001-2017
</metadata>
<g transform="translate(0.000000,583.000000) scale(0.100000,-0.100000)"
fill="#000000" stroke="none">
<path d="M1557 4844 c-1 -2 -22 -4 -45 -5 -52 -3 -105 -48 -119 -99 -5 -19 -9
-86 -9 -148 1 -61 -3 -112 -7 -112 -5 0 -5 -5 -1 -12 10 -15 13 -69 4 -63 -3
2 -7 -2 -7 -10 0 -8 4 -15 9 -15 11 0 6 -23 -7 -32 -7 -5 -6 -8 0 -8 12 0 13
-69 2 -87 -5 -7 -4 -13 0 -13 5 0 9 -9 10 -20 1 -11 -2 -18 -8 -15 -5 4 -5 -3
0 -18 5 -13 5 -30 1 -37 -5 -9 -4 -20 2 -27 8 -10 7 -13 -3 -13 -9 0 -10 -3
-4 -8 12 -9 14 -102 2 -102 -4 0 -5 -5 -1 -12 10 -15 12 -206 2 -221 -4 -6 -2
-17 4 -24 7 -9 7 -17 -2 -28 -7 -8 -9 -15 -4 -15 11 0 11 -170 0 -188 -4 -6
-4 -12 1 -12 4 0 8 -14 9 -30 1 -17 -3 -30 -7 -30 -5 0 -4 -11 1 -25 7 -18 6
-25 -3 -25 -7 0 -8 -3 -2 -8 12 -8 14 -143 3 -136 -5 3 -4 -6 1 -19 6 -16 6
-28 -2 -36 -7 -7 -7 -11 -1 -11 6 0 11 -7 11 -15 0 -8 -5 -15 -11 -15 -7 0 -8
-3 -1 -8 14 -10 14 -103 0 -94 -5 3 -4 -1 2 -9 10 -12 10 -18 1 -27 -7 -7 -8
-12 -2 -12 5 0 10 -9 11 -20 1 -11 -2 -18 -6 -16 -4 3 -8 -1 -8 -9 0 -8 4 -15
9 -15 11 0 6 -23 -7 -32 -7 -5 -7 -8 0 -8 9 0 13 -124 5 -155 -1 -5 -1 -12 0
-15 7 -19 4 -168 -5 -179 -6 -9 -6 -13 0 -9 13 8 13 -184 0 -194 -7 -5 -6 -8
0 -8 9 0 12 -46 5 -75 -1 -5 -1 -12 0 -15 7 -17 4 -167 -3 -177 -5 -7 -6 -13
-1 -13 5 0 9 -14 10 -30 1 -17 -3 -30 -8 -30 -5 0 -6 -5 -2 -11 11 -18 12
-109 1 -102 -6 3 -7 1 -3 -6 11 -17 14 -161 3 -161 -4 0 -5 -5 -1 -12 10 -16
12 -139 2 -159 -4 -9 -4 -19 -1 -23 10 -9 10 -126 0 -126 -4 0 -5 -5 -1 -11
10 -16 11 -149 1 -149 -4 0 -5 -5 -1 -11 11 -18 11 -148 0 -142 -5 3 -6 1 -2
-5 4 -6 8 -31 11 -55 3 -44 22 -87 38 -87 4 0 6 -4 3 -9 -11 -17 81 -53 131
-51 26 1 50 1 53 0 20 -6 120 -3 120 3 0 4 9 3 20 -3 11 -6 20 -7 20 -2 0 4
25 5 55 2 31 -3 57 -4 59 -2 2 2 56 3 120 3 122 0 143 6 187 49 34 32 46 71
45 143 -1 33 3 57 9 57 7 0 7 3 0 8 -13 9 -13 112 0 112 7 0 7 3 0 8 -6 4 -10
30 -10 57 0 28 4 53 10 57 7 5 6 8 -1 8 -11 0 -13 78 -2 96 4 6 4 14 0 18 -11
11 -9 325 2 319 5 -4 6 0 0 8 -11 18 -13 139 -2 145 5 3 6 10 2 15 -11 19 -11
109 0 109 7 0 8 3 1 8 -14 9 -14 105 0 114 6 5 6 8 0 8 -5 0 -10 25 -10 55 0
30 3 55 8 55 4 0 5 5 1 12 -10 16 -12 98 -2 104 5 3 5 10 2 16 -12 19 -11 98
0 98 8 0 8 3 1 8 -14 9 -14 165 0 174 7 5 7 8 -1 8 -6 0 -11 15 -11 33 0 17
-1 42 -2 55 -1 27 -72 102 -98 103 -10 1 -34 2 -53 4 -57 4 -82 -10 -135 -74
-12 -15 -14 -21 -5 -16 13 8 13 6 1 -8 -8 -10 -12 -34 -9 -62 2 -25 1 -45 -2
-45 -5 0 -4 -832 0 -855 1 -5 1 -14 0 -20 -6 -32 -5 -97 2 -101 5 -3 6 -10 2
-15 -9 -16 -11 -100 -2 -105 5 -3 5 -10 2 -16 -9 -14 -8 -333 0 -347 4 -6 3
-11 -3 -11 -6 0 -8 -7 -5 -15 9 -23 -4 -61 -21 -63 -28 -3 -40 -3 -67 1 -16 2
-28 0 -28 -6 0 -6 -5 -5 -13 1 -8 7 -18 7 -27 2 -8 -5 -22 -4 -34 2 -12 6 -22
11 -23 10 -2 -1 -6 -2 -10 -2 -5 0 -8 663 -8 1473 0 1303 2 1472 15 1469 19
-4 23 -8 53 -63 42 -77 51 -92 70 -113 9 -11 17 -27 17 -36 0 -9 8 -25 18 -36
10 -10 32 -44 49 -74 35 -65 95 -163 102 -170 4 -3 7 -11 9 -19 2 -8 12 -27
23 -42 10 -15 19 -32 19 -38 0 -6 5 -11 11 -11 5 0 7 -4 4 -10 -3 -5 -2 -10 3
-10 6 0 15 -13 21 -30 5 -16 14 -30 18 -30 4 0 17 -20 28 -45 11 -25 23 -45
27 -45 4 0 12 -16 19 -35 7 -19 17 -35 21 -35 4 0 8 -7 8 -15 0 -7 6 -18 14
-22 8 -4 15 -11 16 -15 3 -23 32 -78 40 -78 6 0 10 -5 10 -11 0 -6 9 -23 19
-37 10 -15 18 -29 18 -32 -1 -5 5 -15 64 -110 19 -30 34 -58 34 -63 0 -4 7
-12 15 -17 8 -5 11 -10 7 -10 -4 0 6 -20 23 -45 17 -25 27 -45 23 -45 -4 0 -2
-4 6 -9 8 -5 16 -16 17 -25 1 -8 11 -25 23 -37 12 -13 21 -29 21 -36 0 -7 5
-13 11 -13 5 0 8 -4 4 -9 -3 -5 2 -17 11 -25 8 -9 12 -16 7 -16 -4 0 -3 -4 3
-8 11 -8 74 -108 74 -119 0 -3 11 -21 25 -38 13 -18 21 -35 18 -39 -4 -3 -1
-6 5 -6 7 0 12 -9 12 -21 0 -11 4 -18 8 -15 5 3 14 -11 21 -30 7 -18 17 -34
22 -34 5 0 9 -4 9 -10 0 -5 18 -39 40 -75 22 -36 41 -71 43 -77 2 -11 17 -33
42 -62 6 -6 11 -18 13 -26 2 -8 8 -17 13 -18 5 -2 7 -7 4 -12 -3 -4 2 -13 10
-20 8 -7 15 -19 15 -26 0 -8 5 -14 10 -14 6 0 10 -7 10 -15 0 -9 9 -25 20 -37
11 -12 20 -28 20 -35 0 -7 5 -13 10 -13 6 0 10 -9 10 -20 0 -11 4 -20 9 -20 5
0 14 -13 20 -30 5 -16 14 -30 19 -30 5 0 12 -8 15 -17 7 -23 72 -137 97 -173
11 -16 20 -32 20 -38 0 -5 9 -19 20 -32 11 -13 20 -28 20 -35 0 -6 8 -20 18
-31 9 -11 33 -50 52 -87 19 -37 38 -67 42 -67 4 0 10 -9 13 -21 7 -20 44 -81
65 -107 6 -7 8 -17 5 -22 -3 -6 -3 -10 2 -10 9 -1 59 -79 55 -87 -2 -2 6 -13
18 -23 12 -10 21 -21 21 -24 -1 -3 -1 -9 -1 -13 0 -11 60 -77 60 -67 0 5 4 4
8 -2 22 -33 72 -42 229 -43 86 -1 159 -3 161 -6 2 -2 14 0 27 5 13 5 26 6 29
2 6 -5 76 -7 101 -2 6 1 15 1 20 0 6 -1 55 -1 110 0 103 1 175 14 175 30 0 6
6 10 13 10 16 0 50 80 52 121 1 16 -3 29 -9 29 -7 0 -8 3 -1 8 13 9 14 65 0
74 -7 5 -7 8 1 8 13 0 15 30 3 45 -4 6 -4 17 1 25 5 9 5 19 -2 27 -7 9 -7 13
0 13 11 0 11 18 -1 38 -5 6 -4 12 1 12 10 0 10 30 0 46 -4 5 -3 16 2 24 5 9 5
19 -2 27 -6 8 -6 13 -1 13 5 0 10 7 10 15 0 8 -5 15 -11 15 -6 0 -6 4 2 12 7
7 8 17 1 30 -6 12 -6 18 1 18 12 0 9 22 -5 32 -7 5 -6 8 1 8 6 0 9 14 7 32 -5
43 -5 48 0 81 2 15 0 27 -6 27 -5 0 -4 6 2 14 9 11 9 16 0 21 -8 6 -7 10 2 16
11 7 11 9 1 9 -10 0 -10 5 -2 20 7 13 7 20 1 20 -7 0 -7 9 -1 25 6 15 6 26 0
30 -6 4 -6 14 1 27 8 16 8 19 -1 13 -9 -6 -9 -2 -1 14 8 14 8 21 1 21 -8 0 -8
6 0 20 7 13 7 20 1 20 -7 0 -7 9 -1 25 6 15 6 26 -1 30 -5 4 -6 11 -3 17 11
17 10 52 -1 60 -6 5 -6 8 2 8 9 0 10 7 3 25 -6 16 -6 25 1 25 6 0 6 6 0 19 -6
10 -7 21 -4 25 10 10 11 66 1 66 -5 0 -6 6 -1 13 11 17 11 50 0 65 -6 7 -6 12
0 12 10 0 10 40 0 57 -4 5 -3 13 0 17 11 11 12 38 3 56 -5 10 -6 20 -3 24 10
10 11 66 1 66 -5 0 -6 5 -2 12 9 15 10 58 2 80 -4 9 -4 19 0 23 10 10 8 39 -3
47 -6 5 -5 8 2 8 9 0 10 7 3 25 -6 16 -6 25 1 25 6 0 6 6 0 19 -6 10 -8 21 -4
24 10 10 10 51 0 65 -6 8 -5 12 3 12 9 0 9 4 2 13 -7 8 -7 18 -2 27 5 8 6 18
3 23 -9 15 -10 67 -1 67 5 0 5 8 -1 17 -5 9 -5 26 -1 38 5 12 4 28 0 35 -5 8
-6 18 -3 23 10 17 9 52 -2 59 -6 5 -6 8 0 8 6 0 9 19 7 42 -4 62 -4 61 2 86 2
12 0 22 -5 22 -6 0 -7 5 -3 12 11 17 11 58 1 65 -4 2 -4 10 1 16 10 14 9 77
-1 94 -4 6 -3 14 2 17 10 7 9 25 -2 44 -5 7 -3 12 3 12 8 0 8 6 0 20 -7 14 -7
20 0 20 12 0 9 22 -5 32 -7 5 -7 8 0 8 9 0 12 44 5 75 -1 6 -1 12 0 15 7 19 5
50 -4 50 -7 0 -7 3 -1 8 13 9 14 92 1 92 -6 0 -5 5 2 12 7 7 8 17 1 30 -7 12
-6 18 1 18 6 0 8 5 4 12 -10 17 -11 68 0 68 5 0 3 6 -3 13 -6 8 -8 17 -4 21
11 11 12 36 2 36 -6 0 -5 8 1 20 8 14 8 20 0 20 -8 0 -8 6 0 20 8 14 8 20 0
20 -8 0 -8 6 0 20 6 12 7 20 1 20 -10 0 -9 25 2 36 4 4 2 13 -4 21 -6 7 -7 13
-2 13 9 0 9 52 0 67 -3 5 -2 15 3 23 4 7 5 23 0 35 -4 12 -4 29 1 38 7 11 6
17 -1 17 -7 0 -8 6 -1 18 6 11 6 24 1 32 -5 8 -6 19 -2 25 7 9 7 25 2 50 -1 6
-3 24 -4 40 -2 17 -4 37 -4 45 -2 17 -52 78 -52 64 0 -5 -4 -3 -9 4 -4 8 -26
16 -47 20 -45 6 -588 7 -620 0 -32 -6 -72 -35 -79 -58 -4 -11 -10 -18 -15 -15
-12 7 -17 -21 -19 -110 -2 -44 -3 -106 -4 -138 -1 -31 2 -57 6 -57 5 0 5 -5 1
-12 -9 -15 -9 -76 0 -85 3 -3 1 -12 -5 -19 -7 -8 -7 -14 1 -19 8 -5 8 -11 -1
-21 -9 -11 -8 -14 2 -14 9 0 10 -3 4 -8 -12 -9 -14 -62 -2 -62 4 0 5 -5 1 -11
-5 -9 -8 -194 -3 -227 1 -4 1 -9 0 -12 -6 -22 -4 -350 2 -350 5 0 5 -5 2 -11
-9 -13 -9 -234 -1 -248 4 -5 2 -12 -3 -15 -4 -3 -5 -24 -1 -46 4 -22 5 -40 1
-40 -3 0 -4 -72 -1 -160 3 -88 2 -160 -2 -160 -3 0 -4 -8 -2 -17 9 -40 9 -183
-1 -183 -7 0 -7 -3 0 -8 6 -4 10 -20 10 -37 0 -16 -4 -33 -10 -37 -7 -5 -7 -8
0 -8 6 0 10 -33 10 -79 0 -44 -3 -77 -7 -74 -5 2 -8 -1 -8 -7 0 -8 -6 -8 -20
0 -11 6 -18 15 -15 21 4 5 1 9 -4 9 -6 0 -11 6 -11 13 0 7 -8 22 -17 33 -10
11 -19 26 -21 34 -2 8 -8 17 -13 18 -5 2 -9 10 -9 18 0 8 -4 14 -10 14 -5 0
-10 6 -10 13 0 6 -18 40 -40 75 -22 34 -40 67 -40 72 0 6 -5 10 -11 10 -5 0
-7 5 -4 10 3 6 1 10 -5 10 -6 0 -8 5 -5 10 3 6 1 10 -4 10 -6 0 -11 4 -11 9 0
13 -81 145 -91 149 -5 2 -7 8 -3 13 3 5 0 9 -5 9 -6 0 -11 9 -11 20 0 11 -4
20 -10 20 -5 0 -12 11 -16 25 -3 14 -10 25 -15 25 -5 0 -9 5 -9 11 0 6 -9 22
-20 36 -11 14 -18 29 -15 33 3 4 -2 11 -11 14 -8 3 -13 10 -9 15 3 6 0 13 -7
18 -7 4 -20 22 -28 38 -8 17 -21 36 -28 43 -7 8 -10 17 -8 21 3 4 -4 13 -14
21 -10 8 -17 17 -14 22 3 4 -4 18 -15 30 -12 12 -21 27 -21 33 0 7 -9 22 -20
35 -11 12 -17 27 -14 31 3 5 0 9 -5 9 -6 0 -11 7 -11 15 0 9 -7 18 -15 21 -8
4 -13 9 -10 14 2 4 -4 16 -13 26 -10 10 -18 21 -18 24 0 6 -66 123 -73 130 -3
3 -13 19 -21 35 -8 17 -17 32 -20 35 -3 3 -17 26 -30 53 -14 26 -28 47 -32 47
-5 0 -8 9 -8 20 0 11 -4 20 -9 20 -5 0 -25 31 -45 70 -20 38 -42 75 -49 82 -7
7 -21 29 -30 48 -9 19 -31 58 -47 85 -16 28 -42 71 -56 98 -15 26 -31 47 -36
47 -5 0 -7 4 -3 9 3 5 -2 16 -10 24 -8 9 -20 26 -25 39 -20 43 -58 111 -67
117 -8 6 -22 30 -67 115 -12 22 -31 51 -43 65 -13 14 -23 29 -23 32 0 6 -25
16 -59 24 -38 9 -78 8 -98 -3 -13 -7 -23 -11 -23 -8 0 3 -12 -6 -26 -19 -14
-13 -23 -28 -20 -33 3 -6 -1 -13 -10 -16 -8 -3 -13 -10 -9 -15 3 -5 1 -12 -4
-15 -10 -6 -5 -62 8 -91 27 -61 57 -115 63 -115 5 0 8 -7 8 -15 0 -8 4 -15 9
-15 7 0 22 -36 20 -49 0 -2 5 -7 13 -12 7 -5 14 -13 14 -19 1 -5 2 -15 3 -22
0 -6 4 -9 7 -5 4 3 19 -18 33 -49 15 -30 30 -51 34 -48 4 4 7 -2 7 -14 0 -12
4 -22 9 -22 5 0 13 -10 17 -22 3 -12 21 -44 39 -72 18 -28 35 -61 39 -73 4
-13 12 -23 17 -23 5 0 8 -3 8 -7 -3 -21 2 -33 16 -33 8 0 15 -7 15 -15 0 -15
19 -55 31 -65 4 -3 16 -23 28 -45 43 -80 74 -130 82 -133 5 -2 9 -12 9 -23 0
-10 4 -19 8 -19 5 0 17 -18 27 -40 10 -22 21 -40 25 -40 3 0 12 -16 19 -35 7
-19 17 -35 22 -35 5 0 9 -9 9 -20 0 -11 4 -20 8 -20 5 0 19 -20 32 -45 13 -25
28 -45 33 -45 6 0 7 -3 4 -6 -4 -4 3 -20 14 -35 11 -16 18 -29 14 -29 -3 0 3
-10 14 -21 11 -12 30 -43 42 -68 12 -25 24 -48 28 -51 3 -3 12 -16 19 -30 7
-14 18 -34 25 -45 13 -21 64 -106 84 -140 7 -11 20 -37 30 -57 10 -21 23 -38
30 -38 7 0 12 -3 11 -7 -2 -9 32 -85 42 -93 10 -8 64 -105 59 -106 -2 0 4 -8
14 -18 9 -10 17 -24 17 -32 0 -8 5 -14 10 -14 6 0 10 -6 10 -14 0 -8 3 -16 8
-18 4 -1 18 -24 31 -50 13 -27 28 -48 33 -48 5 0 7 -4 3 -9 -3 -6 3 -14 12
-20 10 -6 15 -11 10 -11 -4 0 4 -18 18 -40 14 -22 25 -44 25 -50 0 -5 4 -10 8
-10 4 0 19 -22 33 -50 13 -27 27 -50 32 -50 4 0 7 -5 7 -11 0 -6 9 -23 19 -38
11 -15 21 -34 23 -41 2 -8 11 -23 21 -34 9 -11 17 -26 17 -33 0 -7 5 -13 10
-13 6 0 10 -7 10 -15 0 -8 4 -15 9 -15 8 0 24 -37 22 -52 -1 -5 4 -8 10 -8 5
0 7 -4 4 -10 -3 -5 -2 -10 3 -10 5 0 15 -12 22 -27 8 -16 21 -36 29 -45 8 -10
11 -18 7 -18 -4 0 -1 -7 6 -15 31 -35 38 -45 38 -59 0 -8 8 -20 18 -25 9 -6
14 -11 10 -11 -8 0 66 -126 85 -144 19 -18 60 -33 87 -31 31 2 93 26 86 33 -3
3 2 10 11 17 13 10 17 33 19 115 2 57 6 105 8 107 3 3 1 16 -4 29 -5 13 -6 24
-2 24 9 0 7 64 -2 78 -3 5 -1 14 4 22 4 7 4 24 -1 37 -5 12 -5 23 -1 23 4 0 7
11 7 25 0 14 -2 25 -5 25 -8 0 -5 44 4 58 4 7 2 12 -4 12 -6 0 -8 5 -5 10 9
15 11 270 2 270 -5 0 -5 6 -1 12 11 17 12 48 3 48 -4 0 -4 14 1 30 5 19 5 30
-1 30 -6 0 -7 5 -3 12 12 18 11 58 -1 58 -6 0 -7 3 0 8 11 7 16 52 6 52 -3 0
-4 36 -1 81 3 44 2 83 -3 86 -4 2 -2 13 3 24 7 12 7 19 1 19 -6 0 -6 11 -1 28
4 16 4 36 -2 45 -5 10 -5 17 0 17 5 0 8 16 8 35 -1 19 -4 35 -8 35 -4 0 -3 13
2 28 4 16 4 36 -2 45 -5 10 -5 17 -1 17 5 0 9 18 8 40 0 22 -3 40 -7 40 -4 0
-4 11 1 23 5 13 5 30 1 37 -5 8 -6 18 -3 23 9 14 9 218 0 224 -4 2 -3 12 1 21
8 15 8 41 2 67 -1 6 -2 12 0 15 6 16 4 80 -3 80 -5 0 -5 6 -1 12 11 17 11 108
0 108 -5 0 -4 6 2 13 14 17 15 19 3 48 -5 15 -7 29 -4 32 8 8 9 137 1 137 -4
0 -5 6 -3 13 11 31 13 67 3 67 -6 0 -6 6 2 15 8 9 8 15 2 15 -7 0 -8 10 -3 28
5 15 4 37 0 50 -5 14 -5 22 3 22 7 0 7 4 -1 14 -8 9 -8 16 -2 20 6 4 7 15 2
29 -5 14 -5 30 0 40 7 12 6 17 -2 17 -8 0 -8 4 -1 13 10 12 12 18 12 37 0 6 3
9 8 9 4 -1 9 0 12 1 16 6 180 4 180 -3 0 -4 5 -5 10 -2 6 3 10 -1 10 -9 0 -9
6 -16 13 -16 7 0 8 -3 2 -8 -12 -8 -14 -1600 -3 -1618 4 -6 4 -14 0 -18 -12
-12 -10 -86 2 -86 8 0 8 -2 0 -8 -13 -9 -13 -180 0 -201 6 -10 6 -12 -2 -7 -7
4 -12 1 -12 -8 0 -8 6 -17 13 -19 10 -4 10 -6 0 -6 -16 -1 -17 -37 -3 -46 7
-4 7 -11 2 -18 -11 -14 -10 -282 0 -293 4 -4 3 -13 -3 -21 -9 -9 -8 -17 0 -27
8 -9 8 -16 2 -20 -11 -7 -10 -75 2 -93 4 -6 4 -14 -1 -17 -11 -7 -9 -478 2
-495 6 -9 5 -12 -1 -8 -13 8 -11 -211 1 -232 6 -10 5 -12 -2 -7 -8 5 -12 -1
-12 -18 0 -24 -33 -46 -47 -32 -4 3 -12 1 -20 -5 -10 -9 -13 -8 -13 2 0 12 -2
12 -9 0 -6 -9 -11 -10 -15 -2 -5 8 -13 8 -27 1 -13 -8 -19 -7 -19 0 0 8 -6 8
-20 0 -14 -8 -20 -8 -20 0 0 8 -6 8 -20 0 -11 -6 -20 -7 -20 -3 0 4 -11 8 -25
8 -14 0 -25 -4 -25 -8 0 -4 -8 -3 -18 2 -11 6 -24 6 -35 0 -12 -7 -17 -6 -17
2 0 9 -3 9 -14 0 -9 -8 -16 -8 -20 -2 -4 6 -13 8 -21 4 -8 -3 -15 0 -15 7 0 6
-4 9 -8 6 -4 -2 -14 10 -21 27 -8 18 -24 46 -35 62 -12 17 -21 33 -21 37 0 4
-8 17 -17 28 -10 11 -18 25 -18 30 0 6 -5 10 -11 10 -5 0 -8 4 -4 9 3 5 1 12
-4 16 -5 3 -16 18 -24 33 -18 36 -41 76 -47 82 -9 9 -30 44 -39 67 -6 11 -15
24 -20 28 -6 3 -11 15 -11 26 0 10 -4 19 -8 19 -5 0 -15 12 -23 28 -8 15 -16
29 -19 32 -3 3 -14 23 -26 45 -30 58 -47 88 -61 102 -6 7 -17 26 -25 43 -7 16
-17 30 -21 30 -5 0 -5 5 -2 10 3 6 2 10 -4 10 -10 0 -27 38 -23 52 1 5 -2 8
-7 8 -10 0 -91 135 -91 151 0 5 -5 9 -12 9 -6 0 -9 3 -5 6 3 4 1 12 -6 20 -32
36 -38 45 -32 54 3 6 1 10 -4 10 -6 0 -11 7 -11 15 0 8 -3 15 -7 15 -5 0 -17
19 -28 41 -10 23 -25 43 -32 46 -7 3 -11 8 -8 12 2 4 -7 24 -20 44 -14 20 -25
38 -25 41 0 3 -16 30 -35 60 -19 30 -35 60 -35 66 0 5 -5 10 -11 10 -5 0 -7 5
-4 10 3 5 1 10 -5 10 -6 0 -9 4 -6 9 3 5 -1 12 -10 15 -9 4 -14 9 -11 12 3 4
-5 22 -20 40 -14 19 -23 34 -20 34 3 0 -10 23 -29 51 -19 28 -34 55 -34 61 0
5 -7 16 -15 25 -8 8 -12 19 -9 25 4 6 3 8 -2 5 -5 -3 -25 24 -44 61 -19 36
-43 75 -52 86 -10 11 -18 26 -18 33 0 7 -4 13 -8 13 -5 0 -14 16 -22 35 -8 19
-17 35 -21 35 -4 0 -9 8 -13 18 -6 18 -20 43 -73 129 -17 28 -29 54 -26 57 4
3 1 6 -6 6 -7 0 -17 14 -22 30 -6 17 -14 30 -18 30 -4 0 -13 16 -21 35 -8 19
-18 35 -22 35 -5 0 -6 5 -3 10 3 6 2 10 -3 10 -5 0 -17 18 -28 40 -10 22 -22
40 -26 40 -5 0 -8 7 -8 15 0 8 -5 15 -12 15 -6 0 -8 3 -5 6 4 4 -2 19 -13 34
-11 16 -20 33 -20 39 0 6 -5 11 -11 11 -5 0 -7 5 -4 10 3 6 1 10 -4 10 -6 0
-11 7 -11 15 0 8 -4 15 -10 15 -5 0 -10 6 -10 14 0 7 -7 19 -15 26 -8 7 -12
16 -9 21 3 5 0 9 -5 9 -6 0 -11 6 -11 14 0 7 -7 19 -15 26 -9 7 -13 15 -11 17
3 3 -4 14 -14 26 -11 11 -17 24 -14 28 2 4 -5 14 -16 22 -11 7 -17 17 -13 20
3 4 1 7 -6 7 -7 0 -10 4 -6 9 3 5 -1 15 -8 23 -7 7 -18 24 -25 38 -13 27 -34
62 -42 70 -3 3 -14 23 -26 45 -44 83 -59 110 -69 117 -5 4 -10 12 -10 18 0 6
-7 15 -15 20 -8 5 -12 10 -7 10 4 0 -4 18 -18 40 -14 22 -25 44 -25 49 0 5 -4
11 -8 13 -5 2 -27 38 -51 81 -23 42 -47 77 -53 77 -6 0 -8 3 -5 6 18 19 -104
177 -130 167 -7 -3 -13 -1 -13 5 0 8 -66 23 -73 16z"/>
</g>
</svg>
